<svg height="512" viewBox="0 0 64 64" width="512" xmlns="http://www.w3.org/2000/svg"><g id="discount"><path d="m58 48.27a3.457 3.457 0 0 0 -3.45-3.45 3.343 3.343 0 0 0 -.97.14l-1.6.47a.875.875 0 0 0 .02-.16 3.457 3.457 0 0 0 -3.45-3.45 3.343 3.343 0 0 0 -.97.14l-4.58 1.35v-.04a3.457 3.457 0 0 0 -3.45-3.45 3.343 3.343 0 0 0 -.97.14l-9.58 2.82-8.8-1.76a1.355 1.355 0 0 0 -.2-.02h-6a.937.937 0 0 0 -.37.07l-3.63 1.45v-1.52a1.014 1.014 0 0 0 -.68-.95l-6-2a1 1 0 0 0 -.9.14.983.983 0 0 0 -.42.81v22a.983.983 0 0 0 .42.81.939.939 0 0 0 .58.19 1.185 1.185 0 0 0 .32-.05l6-2a1.014 1.014 0 0 0 .68-.95v-1h2.84l11.84 3.95a1.185 1.185 0 0 0 .32.05h15a.919.919 0 0 0 .33-.06l15.37-5.42a3.449 3.449 0 0 0 2.3-3.25 3.407 3.407 0 0 0 -1.1-2.49 3.456 3.456 0 0 0 1.1-2.51zm-50 10.01-4 1.33v-19.22l4 1.33zm40.15-14.4a1.29 1.29 0 0 1 .4-.06 1.418 1.418 0 0 1 1.18 2.25l-11.73 2.68v-1.75c0-.04-.02-.08-.02-.13zm-9-2a1.29 1.29 0 0 1 .4-.06 1.451 1.451 0 0 1 1.45 1.45 1.385 1.385 0 0 1 -.2.69l-4.19 1.23-.9-.9a1.014 1.014 0 0 0 -.51-.27l-1.98-.4zm15.89 12.75-15.21 5.37h-14.67l-11.84-3.95a1.185 1.185 0 0 0 -.32-.05h-3v-11.32l4.19-1.68h5.71l14.61 2.92 1.49 1.49v1.59h-13a1 1 0 0 0 -.49 1.87l9 5a.947.947 0 0 0 .49.13h8a.863.863 0 0 0 .28-.04l13.87-4.08a1.413 1.413 0 0 1 1.27.23 1.446 1.446 0 0 1 -.38 2.52zm.04-5.01-.68.21a3.336 3.336 0 0 0 -.82.13l-13.72 4.04h-7.6l-4.95-2.75.7-.25h8.99a1.435 1.435 0 0 0 .22-.04v.01l13.39-3.05 3.54-1.04a1.29 1.29 0 0 1 .4-.06 1.45 1.45 0 0 1 .53 2.8z"/><path d="m45 23a4 4 0 1 0 4 4 4 4 0 0 0 -4-4zm0 6a2 2 0 1 1 2-2 2 2 0 0 1 -2 2z"/><path d="m35 21a4 4 0 1 0 -4-4 4 4 0 0 0 4 4zm0-6a2 2 0 1 1 -2 2 2 2 0 0 1 2-2z"/><path d="m28.686 21h22.627v2h-22.627z" transform="matrix(.707 -.707 .707 .707 -3.841 34.728)"/><path d="m55.72 21.3-1.72-1.77 1.01-2.25a1 1 0 0 0 -.48-1.31l-2.22-1.08.18-2.46a1.007 1.007 0 0 0 -.9-1.07l-2.46-.25-.67-2.37a.988.988 0 0 0 -1.2-.7l-2.4.6-1.44-2a1 1 0 0 0 -1.38-.24l-2.04 1.39-2.04-1.39a1.011 1.011 0 0 0 -1.38.24l-1.44 2-2.4-.6a.988.988 0 0 0 -1.2.7l-.67 2.37-2.46.25a1.007 1.007 0 0 0 -.9 1.07l.18 2.46-2.22 1.08a1 1 0 0 0 -.48 1.31l1.01 2.25-1.72 1.77a1.022 1.022 0 0 0 0 1.4l1.72 1.77-1.01 2.25a1 1 0 0 0 .48 1.31l2.22 1.08-.18 2.46a1.007 1.007 0 0 0 .9 1.07l2.46.25.67 2.37a1 1 0 0 0 1.2.7l2.4-.6 1.44 2a1 1 0 0 0 1.38.24l2.04-1.39 2.04 1.39a.969.969 0 0 0 .56.17 1.018 1.018 0 0 0 .82-.41l1.44-2 2.4.6a1 1 0 0 0 1.2-.7l.67-2.37 2.46-.25a1.007 1.007 0 0 0 .9-1.07l-.18-2.46 2.22-1.08a1 1 0 0 0 .48-1.31l-1.01-2.25 1.72-1.77a1.022 1.022 0 0 0 0-1.4zm-3.83 3.37.9 1.98-1.96.95a1.01 1.01 0 0 0 -.57.97l.16 2.18-2.17.21a1.018 1.018 0 0 0 -.86.73l-.59 2.09-2.11-.53a.992.992 0 0 0 -1.05.38l-1.28 1.77-1.8-1.23a1 1 0 0 0 -1.12 0l-1.8 1.23-1.28-1.77a1 1 0 0 0 -.81-.41.986.986 0 0 0 -.24.03l-2.11.53-.59-2.09a1.019 1.019 0 0 0 -.87-.73l-2.16-.21.16-2.18a1 1 0 0 0 -.57-.97l-1.96-.95.9-1.98a1 1 0 0 0 -.2-1.11l-1.52-1.56 1.52-1.56a1 1 0 0 0 .2-1.11l-.9-1.98 1.96-.95a1.01 1.01 0 0 0 .57-.97l-.16-2.18 2.17-.21a1.018 1.018 0 0 0 .86-.73l.59-2.09 2.11.53a.992.992 0 0 0 1.05-.38l1.28-1.77 1.8 1.23a1 1 0 0 0 1.12 0l1.8-1.23 1.28 1.77a1 1 0 0 0 1.05.38l2.11-.53.59 2.09a1.019 1.019 0 0 0 .87.73l2.16.21-.16 2.18a1 1 0 0 0 .57.97l1.96.95-.9 1.98a1 1 0 0 0 .2 1.11l1.52 1.56-1.52 1.56a1 1 0 0 0 -.2 1.11z"/><path d="m51 8h2v-2h2v-2h-2v-2h-2v2h-2v2h2z"/><path d="m62 10h-2v-2h-2v2h-2v2h2v2h2v-2h2z"/><path d="m27 8h2v-2h2v-2h-2v-2h-2v2h-2v2h2z"/><path d="m20 14h2v-2h2v-2h-2v-2h-2v2h-2v2h2z"/></g></svg>